# xmcd
#
# Track frame offsets:
#	150
#	17477
#	33793
#	51552
#	77365
#	98083
#	117029
#	133361
#	150508
#	163544
#	185703
#	205742
#	226227
#	240314
#	253218
#	268854
#	280689
#	291765
#	311182
#	325853
#	336480
#
# Disc length: 4682 seconds
#
# Revision: 1
# Processed by: cddbd v1.5.2PL0 Copyright (c) Steve Scherf et al.
# Submitted via: audiograbber 1.83.01
#
DISCID=27124815
DTITLE=Diversen - Ik hou van Holland 2
DYEAR=1900
DGENRE=
TTITLE0=Ramses Shaffy - Zing, vecht, huil, bid, lach, werk en bewonder
TTITLE1=Leaf - Wonderwoman
TTITLE2=Frans Bauer - Als sterren aan de hemel staan
TTITLE3=Gerard Joling - Ticket to the tropics
TTITLE4=Golden Earring - Twilight zone
TTITLE5=Jan Smit - Ik zing dit lied voor jou alleen
TTITLE6=Traffasi - Wasjmasjien
TTITLE7=Luv - Casanova
TTITLE8=Anneke Gronloh - Brandend zand
TTITLE9=De Kast - In nije dei
TTITLE10=Henk Westbroek - Zelfs je naam is mooi
TTITLE11=The Scene - Blauw
TTITLE12=Frank and Mirella - Verliefd, verloofd, getrouwd
TTITLE13=Manke Nelis - Kleine jongen
TTITLE14=Corry Konings - Adios amor
TTITLE15=Eddy Christiani - Ik zie de zon
TTITLE16=Conny Vandenbos - Ik ben gelukkig zonder jou
TTITLE17=Koos Alberts - Eenmaal kom jij terug
TTITLE18=Ria Valk - Hou je echt nog van mij Rocking Billy
TTITLE19=Imca Marina - Harlekino
TTITLE20=Robert Leroy - Ik droom alleen nog maar van jou
EXTD=
EXTT0=
EXTT1=
EXTT2=
EXTT3=
EXTT4=
EXTT5=
EXTT6=
EXTT7=
EXTT8=
EXTT9=
EXTT10=
EXTT11=
EXTT12=
EXTT13=
EXTT14=
EXTT15=
EXTT16=
EXTT17=
EXTT18=
EXTT19=
EXTT20=
PLAYORDER=
